<svg width="200" height="80" viewBox="0 0 200 80">
    <defs>
        <marker id="mini-arrow" markerWidth="6" markerHeight="4" refX="5" refY="2" orient="auto">
            <polygon points="0 0, 6 2, 0 4" fill="#6b7280"/>
        </marker>
    </defs>
    <line x1="28.571428571428573" y1="10" x2="28.571428571428573" y2="70" stroke="#10b981" stroke-width="2" opacity="0.6"/><circle cx="28.571428571428573" cy="10" r="4" fill="#10b981"/><line x1="57.142857142857146" y1="10" x2="57.142857142857146" y2="70" stroke="#ff9900" stroke-width="2" opacity="0.6"/><circle cx="57.142857142857146" cy="10" r="4" fill="#ff9900"/><line x1="85.71428571428572" y1="10" x2="85.71428571428572" y2="70" stroke="#00a4ef" stroke-width="2" opacity="0.6"/><circle cx="85.71428571428572" cy="10" r="4" fill="#00a4ef"/><line x1="114.28571428571429" y1="10" x2="114.28571428571429" y2="70" stroke="#8b5cf6" stroke-width="2" opacity="0.6"/><circle cx="114.28571428571429" cy="10" r="4" fill="#8b5cf6"/><line x1="142.85714285714286" y1="10" x2="142.85714285714286" y2="70" stroke="#00a4ef" stroke-width="2" opacity="0.6"/><circle cx="142.85714285714286" cy="10" r="4" fill="#00a4ef"/><line x1="171.42857142857144" y1="10" x2="171.42857142857144" y2="70" stroke="#3b82f6" stroke-width="2" opacity="0.6"/><circle cx="171.42857142857144" cy="10" r="4" fill="#3b82f6"/>
    <path d="M 28.571428571428573 20.0 Q 43.57142857142857 25.0 28.571428571428573 30.0" fill="none" stroke="#6b7280" stroke-width="1"/><line x1="57.142857142857146" y1="27.5" x2="28.571428571428573" y2="27.5" stroke="#6b7280" stroke-width="1" marker-end="url(#mini-arrow)"/><line x1="85.71428571428572" y1="35.0" x2="57.142857142857146" y2="35.0" stroke="#6b7280" stroke-width="1" marker-end="url(#mini-arrow)"/><line x1="114.28571428571429" y1="42.5" x2="85.71428571428572" y2="42.5" stroke="#6b7280" stroke-width="1" marker-end="url(#mini-arrow)"/><line x1="142.85714285714286" y1="50.0" x2="57.142857142857146" y2="50.0" stroke="#6b7280" stroke-width="1" marker-end="url(#mini-arrow)"/><line x1="114.28571428571429" y1="57.5" x2="142.85714285714286" y2="57.5" stroke="#6b7280" stroke-width="1" marker-end="url(#mini-arrow)"/><line x1="171.42857142857144" y1="65.0" x2="57.142857142857146" y2="65.0" stroke="#ef4444" stroke-width="1" marker-end="url(#mini-arrow)"/><line x1="171.42857142857144" y1="72.5" x2="57.142857142857146" y2="72.5" stroke="#6b7280" stroke-width="1" marker-end="url(#mini-arrow)"/>
</svg>